<svg width="26" height="23" viewBox="0 0 26 23" fill="none" xmlns="http://www.w3.org/2000/svg">
<rect width="26" height="23" fill="#E5E5E5"/>
<g id="Home" clip-path="url(#clip0_0_1)">
<rect width="1600" height="6414.17" transform="translate(-1303 -51.5833)" fill="white"/>
<g id="Group 309">
<g id="Rectangle 1" filter="url(#filter0_d_0_1)">
<rect x="-1303" y="-51.5833" width="1600" height="108.333" fill="white"/>
</g>
<g id="Nav top">
<g id="Frame" clip-path="url(#clip1_0_1)">
<g id="Group">
<path id="Vector" d="M0.5 0.633657C0.682081 0.224929 0.990445 0.0766166 1.43341 0.082569C2.78434 0.101914 4.13576 0.0890173 5.48717 0.0900094C6.01873 0.0900094 6.25417 0.275028 6.37653 0.808259C6.54491 1.54536 6.70399 2.28494 6.87481 3.06023C6.97172 3.06023 7.07402 3.06023 7.17681 3.06023C12.9892 3.06023 18.8016 3.06717 24.6136 3.04932C25.2087 3.04733 25.6512 3.46846 25.4515 4.16588C24.4946 7.50663 23.5597 10.8543 22.6165 14.1991C22.4516 14.7844 22.245 14.9396 21.6361 14.9396C17.3298 14.9396 13.0235 14.9396 8.71716 14.9396C8.27273 14.9396 7.9903 15.1078 7.87675 15.4361C7.71767 15.897 8.01624 16.3617 8.51256 16.4198C8.60899 16.4312 8.70786 16.4262 8.80526 16.4262C13.1277 16.4267 17.4507 16.4262 21.7732 16.4267C22.2441 16.4267 22.5647 16.7114 22.5788 17.1355C22.593 17.5611 22.2842 17.8989 21.8618 17.9079C21.504 17.9153 21.1462 17.9093 20.781 17.9262C21.3757 18.073 21.8632 18.3821 22.2029 18.895C22.5495 19.4183 22.6586 20.0001 22.5275 20.6192C22.3038 21.6752 21.3263 22.4222 20.2573 22.3612C19.1957 22.3007 18.3342 21.4808 18.2006 20.3949C18.0904 19.5016 18.5407 18.3032 20.0292 17.9213C16.7987 17.9213 13.6123 17.9213 10.4254 17.9213C11.0088 18.0711 11.4959 18.3731 11.836 18.8811C12.1801 19.3945 12.2937 19.9634 12.1792 20.578C11.9868 21.6092 11.0441 22.3815 9.99222 22.3652C8.91784 22.3488 8.02016 21.5497 7.85423 20.4619C7.67753 19.3032 8.33342 18.3682 9.67945 17.9103C9.31529 17.9103 8.9986 17.9108 8.68143 17.9103C7.55027 17.9089 6.69566 17.2655 6.42254 16.21C6.16753 15.2248 6.6291 14.2298 7.59286 13.6842C7.62027 13.6688 7.64523 13.649 7.67851 13.6261C6.79747 9.6093 5.9179 5.59692 5.0354 1.57314C4.26302 1.57314 3.50679 1.57314 2.75057 1.57314C2.31935 1.57314 1.88666 1.5523 1.45642 1.57909C1.00758 1.60637 0.685508 1.4531 0.5 1.02949C0.5 0.897544 0.5 0.765601 0.5 0.633657ZM23.801 4.55228C18.2573 4.55228 12.7401 4.55228 7.2003 4.55228C7.85227 7.52499 8.50082 10.4843 9.14936 13.4411C13.2095 13.4411 17.2515 13.4411 21.2945 13.4411C22.13 10.4788 22.9616 7.53044 23.801 4.55228ZM10.7568 20.1588C10.771 19.7695 10.4376 19.4128 10.0461 19.3984C9.66183 19.384 9.3099 19.7218 9.29571 20.1187C9.28152 20.508 9.61484 20.8647 10.0064 20.8791C10.3906 20.8935 10.7421 20.5562 10.7568 20.1588ZM20.4188 19.3999C20.037 19.3741 19.6797 19.702 19.6533 20.1023C19.6279 20.4892 19.9514 20.8513 20.3464 20.8781C20.7282 20.9039 21.0855 20.576 21.1119 20.1757C21.1374 19.7883 20.8138 19.4267 20.4188 19.3999Z" fill="#2C2C2C"/>
</g>
</g>
</g>
</g>
<g id="Nav top/state8">
<g id="Group 752">
<circle id="Ellipse 23" cx="23.6667" cy="2.25004" r="6.66667" fill="#E05000"/>
<path id="3" d="M23.8342 5.85772C23.3059 5.85772 22.834 5.76667 22.4185 5.58458C22.0056 5.40248 21.6786 5.14986 21.4375 4.8267C21.199 4.50099 21.0707 4.12397 21.0528 3.69567H22.2608C22.2761 3.92906 22.3544 4.13167 22.4954 4.3035C22.639 4.47277 22.8263 4.60357 23.0571 4.6959C23.2879 4.78823 23.5444 4.8344 23.8265 4.8344C24.1368 4.8344 24.4113 4.78054 24.6498 4.67282C24.8909 4.5651 25.0794 4.41507 25.2153 4.22272C25.3512 4.0278 25.4192 3.80339 25.4192 3.54948C25.4192 3.28531 25.3512 3.05321 25.2153 2.85316C25.0819 2.65055 24.8857 2.49154 24.6267 2.37612C24.3702 2.26071 24.0599 2.20301 23.6957 2.20301H23.0302V1.23355H23.6957C23.9881 1.23355 24.2446 1.18097 24.4651 1.07582C24.6883 0.970664 24.8627 0.824475 24.9883 0.637251C25.114 0.447463 25.1768 0.225616 25.1768 -0.0282906C25.1768 -0.271938 25.1217 -0.483527 25.0114 -0.663056C24.9037 -0.845151 24.7498 -0.987492 24.5498 -1.09008C24.3523 -1.19267 24.1189 -1.24396 23.8496 -1.24396C23.5931 -1.24396 23.3533 -1.19652 23.1302 -1.10162C22.9096 -1.00929 22.7301 -0.875927 22.5916 -0.701527C22.4531 -0.529692 22.3787 -0.323233 22.3685 -0.0821499H21.2182C21.231 -0.507891 21.3567 -0.882339 21.5952 -1.20549C21.8363 -1.52865 22.1543 -1.78127 22.5493 -1.96336C22.9442 -2.14546 23.3828 -2.23651 23.865 -2.23651C24.3702 -2.23651 24.8062 -2.13776 25.173 -1.94028C25.5423 -1.74536 25.827 -1.48505 26.027 -1.15933C26.2296 -0.83361 26.3297 -0.477115 26.3271 -0.0898436C26.3297 0.351286 26.2066 0.725734 25.9578 1.0335C25.7116 1.34126 25.3833 1.54772 24.9729 1.65288V1.71443C25.4961 1.79394 25.9014 2.00168 26.1886 2.33765C26.4784 2.67363 26.622 3.0904 26.6195 3.58795C26.622 4.02139 26.5015 4.40994 26.2579 4.75361C26.0168 5.09728 25.6872 5.36786 25.2692 5.56534C24.8511 5.76026 24.3728 5.85772 23.8342 5.85772Z" fill="white"/>
</g>
</g>
</g>
<defs>
<filter id="filter0_d_0_1" x="-1311.33" y="-58.2499" width="1616.67" height="125" filterUnits="userSpaceOnUse" color-interpolation-filters="sRGB">
<feFlood flood-opacity="0" result="BackgroundImageFix"/>
<feColorMatrix in="SourceAlpha" type="matrix" values="0 0 0 0 0 0 0 0 0 0 0 0 0 0 0 0 0 0 127 0" result="hardAlpha"/>
<feOffset dy="1.66667"/>
<feGaussianBlur stdDeviation="4.16667"/>
<feComposite in2="hardAlpha" operator="out"/>
<feColorMatrix type="matrix" values="0 0 0 0 0 0 0 0 0 0 0 0 0 0 0 0 0 0 0.15 0"/>
<feBlend mode="normal" in2="BackgroundImageFix" result="effect1_dropShadow_0_1"/>
<feBlend mode="normal" in="SourceGraphic" in2="effect1_dropShadow_0_1" result="shape"/>
</filter>
<clipPath id="clip0_0_1">
<rect width="1600" height="6414.17" fill="white" transform="translate(-1303 -51.5833)"/>
</clipPath>
<clipPath id="clip1_0_1">
<rect width="25" height="22.2826" fill="white" transform="translate(0.5 0.083374)"/>
</clipPath>
</defs>
</svg>
